<svg width="45" height="60" viewBox="0 0 45 60" fill="none" xmlns="http://www.w3.org/2000/svg">
<path d="M30.9839 56.4334L17.8533 59.9399C16.9178 60.1896 15.9475 59.6313 15.6968 58.6989C15.4462 57.7667 16.0065 56.7995 16.9418 56.5498L30.0724 53.0433C31.0079 52.7935 31.9782 53.3517 32.2289 54.2841C32.4798 55.2165 31.9193 56.1835 30.9839 56.4334ZM24.9044 16.2171C24.7867 17.8123 23.8813 18.7115 22.4757 18.6887C21.0761 18.6662 20.0575 17.7102 20.0911 16.2546C20.1237 14.8382 21.0148 13.9077 22.5306 13.9243C24.0454 13.9405 24.7962 14.8326 24.9044 16.2171ZM41.7379 10.8407C36.5144 2.24234 26.1686 -1.93529 16.5571 0.863456C8.14565 3.3129 2.66128 8.84817 0.667093 17.3611C-1.30675 25.7869 1.1501 33.0341 7.36804 39.1034C8.82626 40.5269 10.167 42.2511 10.9891 44.0909C11.8132 45.9351 12.0774 46.5117 14.0849 46.0276C16.8728 45.3552 19.6234 44.5294 22.4109 43.8545C23.8398 43.5086 24.3827 42.7134 24.3733 41.2777C24.3351 35.4833 24.3479 29.6884 24.3691 23.8938C24.3737 22.5822 23.9601 21.5022 22.5441 21.4694C21.1107 21.4362 20.6718 22.4801 20.6838 23.8173C20.717 27.5741 20.6938 31.3312 20.6936 35.0881C20.6934 41.1319 20.6936 41.1319 14.7309 42.0002C12.4642 39.4116 10.4 37.0847 8.3689 34.7293C1.07917 26.2756 2.41225 13.779 11.5104 7.30664C18.0468 2.65651 25.0684 2.39776 32.0689 6.32401C38.5691 9.96984 42.1054 17.4809 41.1681 24.7469C40.5419 29.6008 38.2164 33.4754 34.767 36.8061C32.6853 38.8162 30.7884 40.9804 30.1056 43.8869C29.7861 45.2463 29.0214 45.9206 27.7 46.2452C27.9469 46.0165 13.4575 50.0627 13.4575 50.0627C12.5408 50.3074 11.9919 51.2552 12.2376 52.1687L12.2753 52.3099C12.521 53.2234 13.4718 53.7706 14.3885 53.5259C14.3885 53.5259 31.0137 49.0734 31.2317 49.0119C32.7713 48.5883 33.6092 47.4959 33.6444 45.9367C33.6968 43.6091 34.7116 41.7974 36.3629 40.2509C37.247 39.4229 38.1272 38.5874 38.9591 37.7084C45.8261 30.4497 46.9593 19.4361 41.7379 10.8407Z" fill="#2176B9"/>
</svg>
